<?xml version="1.0" encoding="utf-8"?>
<!-- Generator: Adobe Illustrator 24.3.0, SVG Export Plug-In . SVG Version: 6.00 Build 0)  -->
<svg version="1.1" id="Layer_1" xmlns="http://www.w3.org/2000/svg" xmlns:xlink="http://www.w3.org/1999/xlink" x="0px" y="0px"
	 viewBox="0 0 1000 1000" style="enable-background:new 0 0 1000 1000;" xml:space="preserve">
<style type="text/css">
	.st0{fill:#12234C;}
	.st1{fill:#1778F2;}
	.st2{fill:url(#SVGID_1_);}
	.st3{fill:url(#SVGID_2_);}
	.st4{fill:url(#SVGID_3_);}
	.st5{fill:url(#SVGID_4_);}
	.st6{fill:url(#SVGID_5_);}
	.st7{fill:url(#SVGID_6_);}
	.st8{fill:url(#SVGID_7_);}
	.st9{fill:url(#SVGID_8_);}
	.st10{fill:#FFFFFF;}
	.st11{fill:url(#SVGID_9_);}
	.st12{fill:url(#SVGID_10_);}
	.st13{fill:url(#SVGID_11_);}
	.st14{fill:url(#SVGID_12_);}
	.st15{fill:url(#SVGID_13_);}
	.st16{fill:url(#SVGID_14_);}
	.st17{fill:url(#SVGID_15_);}
	.st18{fill:url(#SVGID_16_);}
	.st19{fill:url(#SVGID_17_);}
	.st20{fill:url(#SVGID_18_);}
	.st21{fill:url(#SVGID_19_);}
	.st22{fill:url(#SVGID_20_);}
	.st23{fill:url(#SVGID_21_);}
	.st24{fill:url(#SVGID_22_);}
	.st25{fill:url(#SVGID_23_);}
	.st26{fill:url(#SVGID_24_);}
</style>
<g>
	<g>
		<g>
			<path class="st0" d="M415.3,492.3l-3.8-10.4h-26.9l-3.8,10.4h-14.1l23.3-60.2h16.1l23.2,60.2H415.3z M398.1,443.2l-10,27.6H408
				L398.1,443.2z"/>
			<path class="st0" d="M428.9,462.3c0-18.5,14-31.1,31.6-31.1c13.7,0,21.4,7.2,25.6,14.7l-11,5.4c-2.5-4.9-7.9-8.7-14.6-8.7
				c-10.5,0-18.4,8.4-18.4,19.8c0,11.4,7.9,19.8,18.4,19.8c6.7,0,12.1-3.8,14.6-8.7l11,5.3c-4.3,7.5-11.9,14.8-25.6,14.8
				C442.9,493.4,428.9,480.7,428.9,462.3z"/>
			<path class="st0" d="M507.6,492.3v-48.9h-17.6v-11.3h48v11.3h-17.5v48.9H507.6z"/>
			<path class="st0" d="M546.2,492.3v-60.2h12.8v60.2H546.2z"/>
			<path class="st0" d="M599.5,431.1c18.2,0,31.5,13,31.5,31.1c0,18.1-13.3,31.1-31.5,31.1c-18.1,0-31.4-13-31.4-31.1
				C568.1,444.1,581.3,431.1,599.5,431.1z M599.5,442.5c-11.1,0-18.2,8.5-18.2,19.8c0,11.2,7.1,19.8,18.2,19.8
				c11.1,0,18.3-8.6,18.3-19.8C617.8,451,610.6,442.5,599.5,442.5z"/>
			<path class="st0" d="M681.4,492.3l-28.7-40.4v40.4H640v-60.2h13.2l27.9,39v-39h12.8v60.2H681.4z"/>
			<path class="st0" d="M425.7,567.7v-50.6l-20.4,50.6h-3.1l-20.5-50.6v50.6h-7.5v-60.2H385l18.8,46.4l18.7-46.4h10.7v60.2H425.7z"
				/>
			<path class="st0" d="M490.2,567.7l-5.3-13.4h-29.9l-5.3,13.4H441l24.3-60.2h9.3l24.2,60.2H490.2z M469.9,515.2l-12.7,32.5h25.5
				L469.9,515.2z"/>
			<path class="st0" d="M549.1,567.7l-35.1-48v48h-7.5v-60.2h7.7l34.6,47v-47h7.5v60.2H549.1z"/>
			<path class="st0" d="M613.4,567.7l-5.3-13.4h-29.9l-5.3,13.4h-8.6l24.3-60.2h9.3l24.2,60.2H613.4z M593.1,515.2l-12.7,32.5h25.5
				L593.1,515.2z"/>
			<path class="st0" d="M624,537.7c0-18.8,13.8-31.1,30.9-31.1c10.7,0,18.1,4.7,23.4,11.2l-6,3.8c-3.8-4.9-10.2-8.3-17.4-8.3
				c-13.2,0-23.2,10-23.2,24.4c0,14.3,10,24.4,23.2,24.4c7.2,0,13.2-3.4,16.2-6.5v-12.2h-20.7v-6.7h28.1v21.6
				c-5.6,6.3-13.8,10.5-23.6,10.5C637.8,568.9,624,556.3,624,537.7z"/>
			<path class="st0" d="M690.7,567.7v-60.2h39.4v6.7h-31.9v19.4h31.3v6.7h-31.3V561h31.9v6.7H690.7z"/>
			<path class="st0" d="M776.9,567.7l-15.2-23.9h-12.1v23.9h-7.5v-60.2h24.2c11,0,18.9,7,18.9,18.1c0,10.8-7.5,16.8-15.7,17.5
				l16.2,24.5H776.9z M777.4,525.7c0-6.9-5-11.5-12.1-11.5h-15.8v23h15.8C772.5,537.2,777.4,532.4,777.4,525.7z"/>
		</g>
	</g>
	<g>
		<path class="st1" d="M347.7,398.8c-3.6-6.3-10.2-10.1-17.4-10.1h-95.8c-7.3,0-13.8,3.8-17.4,10.1c-3.6,6.3-3.6,13.8,0,20.1
			l46.8,81l6,10.5l3.4,6l3,5.2l6,10.5l6-10.5l-6-10.5l-6.5-11.2l-6-10.5l-43.8-75.8c-3.7-6.5,0.9-14.5,8.4-14.5h95.8
			c7.5,0,12.1,8.1,8.4,14.5l-43.8,75.8l-6,10.5l6,10.5l6-10.5l46.8-81C351.3,412.6,351.3,405.1,347.7,398.8z"/>
		<path class="st1" d="M237.1,410.4l39.2,67.9l6,10.5l6-10.5l39.2-67.9H237.1z M282.3,467.9l-27.2-47h54.3L282.3,467.9z"/>
		<path class="st1" d="M347.7,581l-46.8-81l-6-10.5l-3.4-6l-3-5.2l-6-10.5l-6,10.5l6,10.5l6.5,11.2l6,10.5l43.8,75.8
			c3.7,6.5-0.9,14.5-8.4,14.5h-95.8c-7.5,0-12.1-8.1-8.4-14.5l43.8-75.8l6-10.5l-6-10.5l-6,10.5L217,581c-3.6,6.3-3.6,13.8,0,20.1
			c3.6,6.3,10.2,10.1,17.4,10.1h95.8c7.3,0,13.8-3.8,17.4-10.1C351.3,594.9,351.3,587.4,347.7,581z"/>
		<path class="st1" d="M288.4,521.7l-6-10.5l-6,10.5l-39.2,67.9h90.5L288.4,521.7z M282.3,532.1l27.2,47h-54.3L282.3,532.1z"/>
		<linearGradient id="SVGID_1_" gradientUnits="userSpaceOnUse" x1="312.0394" y1="428.7846" x2="281.2419" y2="478.6206">
			<stop  offset="0.5165" style="stop-color:#1778F2"/>
			<stop  offset="0.5878" style="stop-color:#1776EE"/>
			<stop  offset="0.6512" style="stop-color:#1671E4"/>
			<stop  offset="0.7116" style="stop-color:#1468D1"/>
			<stop  offset="0.7702" style="stop-color:#115BB8"/>
			<stop  offset="0.8274" style="stop-color:#0E4B97"/>
			<stop  offset="0.8837" style="stop-color:#0A376E"/>
			<stop  offset="0.9391" style="stop-color:#061F3E"/>
			<stop  offset="0.9927" style="stop-color:#010408"/>
			<stop  offset="1" style="stop-color:#000000"/>
		</linearGradient>
		<polygon class="st2" points="315.2,431.8 288.4,478.4 282.3,467.9 303.2,431.8 		"/>
		<linearGradient id="SVGID_2_" gradientUnits="userSpaceOnUse" x1="324.5326" y1="450.4357" x2="293.7351" y2="500.2716">
			<stop  offset="0.5165" style="stop-color:#1778F2"/>
			<stop  offset="0.5878" style="stop-color:#1776EE"/>
			<stop  offset="0.6512" style="stop-color:#1671E4"/>
			<stop  offset="0.7116" style="stop-color:#1468D1"/>
			<stop  offset="0.7702" style="stop-color:#115BB8"/>
			<stop  offset="0.8274" style="stop-color:#0E4B97"/>
			<stop  offset="0.8837" style="stop-color:#0A376E"/>
			<stop  offset="0.9391" style="stop-color:#061F3E"/>
			<stop  offset="0.9927" style="stop-color:#010408"/>
			<stop  offset="1" style="stop-color:#000000"/>
		</linearGradient>
		<polygon class="st3" points="327.7,453.5 300.9,500 294.8,489.6 315.7,453.5 		"/>
		
			<linearGradient id="SVGID_3_" gradientUnits="userSpaceOnUse" x1="2389.521" y1="-609.0273" x2="2358.7234" y2="-559.1914" gradientTransform="matrix(-1 0 0 -1 2642.1792 -37.8088)">
			<stop  offset="0.5165" style="stop-color:#1778F2"/>
			<stop  offset="0.5878" style="stop-color:#1776EE"/>
			<stop  offset="0.6512" style="stop-color:#1671E4"/>
			<stop  offset="0.7116" style="stop-color:#1468D1"/>
			<stop  offset="0.7702" style="stop-color:#115BB8"/>
			<stop  offset="0.8274" style="stop-color:#0E4B97"/>
			<stop  offset="0.8837" style="stop-color:#0A376E"/>
			<stop  offset="0.9391" style="stop-color:#061F3E"/>
			<stop  offset="0.9927" style="stop-color:#010408"/>
			<stop  offset="1" style="stop-color:#000000"/>
		</linearGradient>
		<polygon class="st4" points="249.5,568.2 276.3,521.7 282.3,532.1 261.5,568.2 		"/>
		
			<linearGradient id="SVGID_4_" gradientUnits="userSpaceOnUse" x1="2402.0232" y1="-587.3784" x2="2371.2258" y2="-537.5425" gradientTransform="matrix(-1 0 0 -1 2642.1792 -37.8088)">
			<stop  offset="0.5165" style="stop-color:#1778F2"/>
			<stop  offset="0.5878" style="stop-color:#1776EE"/>
			<stop  offset="0.6512" style="stop-color:#1671E4"/>
			<stop  offset="0.7116" style="stop-color:#1468D1"/>
			<stop  offset="0.7702" style="stop-color:#115BB8"/>
			<stop  offset="0.8274" style="stop-color:#0E4B97"/>
			<stop  offset="0.8837" style="stop-color:#0A376E"/>
			<stop  offset="0.9391" style="stop-color:#061F3E"/>
			<stop  offset="0.9927" style="stop-color:#010408"/>
			<stop  offset="1" style="stop-color:#000000"/>
		</linearGradient>
		<polygon class="st5" points="237,546.5 263.8,500 269.8,510.5 249,546.5 		"/>
		<polygon class="st1" points="300.2,574 264.4,574 268.5,566.9 268.5,566.9 282.3,543.1 282.2,543 282.3,542.9 		"/>
		<path class="st1" d="M297.5,431.3l-15.1,26.2l-15.1-26.2c0,0,6.7-6.8,15.1,0C290.6,437.9,297.2,431.5,297.5,431.3z"/>
	</g>
</g>
</svg>
